<svg id="svg" version="1.1" xmlns="http://www.w3.org/2000/svg" xmlns:xlink="http://www.w3.org/1999/xlink" width="400" height="109.55555555555556" viewBox="0, 0, 400,109.55555555555556"><g id="svgg"><path id="path0" d="M303.587 22.367 C 302.672 22.452,301.884 22.581,301.837 22.653 C 301.789 22.725,301.131 22.880,300.375 22.996 C 299.619 23.112,299.000 23.263,299.000 23.331 C 299.000 23.399,298.550 23.550,298.000 23.667 C 297.450 23.783,297.000 23.932,297.000 23.996 C 297.000 24.061,296.700 24.212,296.333 24.333 C 295.967 24.454,295.667 24.604,295.667 24.667 C 295.667 24.729,295.367 24.879,295.000 25.000 C 294.633 25.121,294.333 25.265,294.333 25.319 C 294.333 25.374,294.090 25.527,293.792 25.658 C 293.239 25.903,293.053 26.029,292.488 26.542 C 292.311 26.702,292.119 26.833,292.060 26.833 C 291.869 26.833,288.833 29.947,288.833 30.143 C 288.833 30.248,288.756 30.333,288.663 30.333 C 288.569 30.333,288.420 30.521,288.333 30.750 C 288.246 30.979,288.112 31.167,288.035 31.167 C 287.958 31.167,287.793 31.429,287.667 31.750 C 287.541 32.071,287.389 32.333,287.329 32.333 C 287.269 32.333,287.121 32.633,287.000 33.000 C 286.879 33.367,286.720 33.667,286.648 33.667 C 286.575 33.667,286.465 33.933,286.404 34.258 C 286.343 34.584,286.195 34.948,286.075 35.068 C 285.954 35.188,285.760 35.766,285.642 36.352 C 285.524 36.937,285.376 37.455,285.312 37.501 C 284.707 37.940,284.712 47.541,285.318 48.000 C 285.378 48.046,285.524 48.563,285.642 49.148 C 285.760 49.734,285.954 50.312,286.075 50.432 C 286.195 50.552,286.343 50.916,286.404 51.242 C 286.465 51.567,286.579 51.833,286.656 51.833 C 286.734 51.833,286.841 52.007,286.894 52.219 C 286.947 52.432,287.143 52.781,287.329 52.995 C 287.515 53.209,287.667 53.482,287.667 53.601 C 287.667 53.719,287.761 53.877,287.875 53.950 C 287.990 54.023,288.196 54.308,288.334 54.582 C 288.471 54.856,288.790 55.284,289.042 55.534 C 289.294 55.784,289.500 56.041,289.500 56.104 C 289.500 56.293,291.779 58.500,291.975 58.500 C 292.074 58.500,292.235 58.650,292.333 58.833 C 292.431 59.017,292.624 59.167,292.761 59.167 C 292.898 59.167,293.049 59.266,293.096 59.388 C 293.142 59.510,293.440 59.712,293.757 59.836 C 294.074 59.960,294.333 60.109,294.333 60.167 C 294.333 60.224,294.596 60.374,294.917 60.500 C 295.237 60.626,295.500 60.787,295.500 60.858 C 295.500 60.929,295.800 61.077,296.167 61.186 C 296.533 61.296,296.833 61.449,296.833 61.526 C 296.833 62.116,297.776 61.296,300.361 58.458 C 309.085 48.880,308.398 49.725,307.587 49.573 C 307.264 49.512,307.000 49.408,307.000 49.341 C 307.000 49.274,306.587 49.127,306.083 49.015 C 305.579 48.902,305.167 48.746,305.167 48.669 C 305.167 48.592,304.865 48.478,304.497 48.416 C 304.128 48.354,303.724 48.201,303.599 48.075 C 303.474 47.950,303.025 47.761,302.602 47.654 C 302.179 47.548,301.833 47.403,301.833 47.334 C 301.833 47.264,301.608 47.114,301.333 47.000 C 301.058 46.886,300.833 46.727,300.833 46.646 C 300.833 46.566,300.736 46.500,300.618 46.500 C 300.116 46.500,298.433 44.546,298.233 43.731 C 298.168 43.467,298.033 43.196,297.933 43.131 C 297.706 42.983,297.715 40.014,297.943 39.859 C 298.030 39.799,298.206 39.487,298.333 39.167 C 298.460 38.846,298.662 38.523,298.782 38.450 C 298.902 38.377,299.000 38.222,299.000 38.105 C 299.000 37.868,300.920 36.434,301.474 36.258 C 301.672 36.195,301.833 36.088,301.833 36.020 C 301.833 35.952,302.227 35.796,302.708 35.674 C 303.190 35.552,303.621 35.395,303.668 35.324 C 304.125 34.626,311.898 34.705,313.445 35.424 C 313.736 35.559,314.200 35.715,314.476 35.770 C 314.752 35.825,315.015 35.965,315.059 36.081 C 315.104 36.196,315.330 36.338,315.562 36.396 C 315.970 36.499,317.392 37.815,317.866 38.528 C 318.088 38.862,318.203 38.762,320.506 36.230 C 321.830 34.774,322.958 33.546,323.013 33.500 C 323.353 33.217,327.500 28.478,327.497 28.375 C 327.496 28.306,327.193 27.988,326.824 27.667 C 326.455 27.346,326.006 26.952,325.827 26.792 C 325.647 26.631,325.434 26.500,325.354 26.500 C 325.273 26.500,325.105 26.376,324.979 26.224 C 324.853 26.072,324.506 25.846,324.208 25.722 C 323.910 25.597,323.667 25.434,323.667 25.358 C 323.667 25.282,323.367 25.121,323.000 25.000 C 322.633 24.879,322.333 24.726,322.333 24.660 C 322.333 24.594,321.996 24.455,321.583 24.351 C 321.171 24.247,320.833 24.098,320.833 24.020 C 320.833 23.943,320.383 23.783,319.833 23.667 C 319.283 23.550,318.833 23.402,318.833 23.337 C 318.833 23.273,318.177 23.120,317.375 22.997 C 316.573 22.875,315.879 22.722,315.833 22.659 C 315.534 22.242,307.094 22.042,303.587 22.367 M227.833 60.000 L 227.833 96.500 250.667 96.500 C 263.225 96.500,273.500 96.461,273.500 96.414 C 273.500 96.324,271.844 94.738,270.458 93.501 C 269.480 92.627,269.481 92.462,270.463 91.398 C 273.211 88.425,276.923 84.299,277.042 84.086 C 277.168 83.861,275.224 83.833,259.342 83.833 L 241.500 83.833 241.500 74.167 L 241.500 64.500 257.833 64.500 L 274.167 64.500 274.167 58.167 L 274.167 51.833 257.833 51.833 L 241.500 51.833 241.500 44.000 L 241.500 36.167 259.000 36.167 L 276.500 36.167 276.500 29.833 L 276.500 23.500 252.167 23.500 L 227.833 23.500 227.833 60.000 M349.376 24.215 C 350.431 25.148,350.487 25.010,347.875 27.866 C 346.615 29.244,345.152 30.863,344.625 31.465 L 343.667 32.559 343.667 64.530 L 343.667 96.500 350.000 96.500 L 356.333 96.500 356.353 73.208 C 356.363 60.398,356.406 50.048,356.448 50.208 C 356.490 50.369,356.579 50.500,356.645 50.500 C 356.712 50.500,356.861 50.762,356.977 51.083 C 357.093 51.404,357.255 51.667,357.337 51.667 C 357.419 51.667,357.577 51.967,357.686 52.333 C 357.796 52.700,357.942 53.000,358.010 53.000 C 358.078 53.000,358.212 53.225,358.308 53.500 C 358.404 53.775,358.550 54.000,358.632 54.000 C 358.714 54.000,358.870 54.300,358.980 54.667 C 359.090 55.033,359.238 55.333,359.309 55.333 C 359.380 55.333,359.541 55.596,359.667 55.917 C 359.793 56.237,359.945 56.500,360.004 56.500 C 360.064 56.500,360.211 56.796,360.330 57.158 C 360.450 57.520,360.642 57.852,360.758 57.897 C 360.874 57.941,361.019 58.208,361.081 58.489 C 361.143 58.770,361.255 59.000,361.330 59.000 C 361.406 59.000,361.546 59.225,361.642 59.500 C 361.738 59.775,361.883 60.000,361.965 60.000 C 362.047 60.000,362.204 60.300,362.314 60.667 C 362.423 61.033,362.579 61.333,362.660 61.333 C 362.741 61.333,362.857 61.563,362.919 61.845 C 362.981 62.126,363.126 62.392,363.242 62.437 C 363.358 62.481,363.550 62.813,363.670 63.175 C 363.789 63.537,363.936 63.833,363.996 63.833 C 364.055 63.833,364.207 64.096,364.333 64.417 C 364.459 64.737,364.612 65.000,364.672 65.000 C 364.733 65.000,364.908 65.281,365.062 65.625 C 365.436 66.463,365.859 67.231,366.002 67.333 C 366.066 67.379,366.210 67.698,366.322 68.042 C 366.434 68.385,366.586 68.667,366.659 68.667 C 366.733 68.667,366.891 68.910,367.012 69.208 C 367.132 69.506,367.277 69.787,367.333 69.833 C 367.390 69.879,367.534 70.160,367.655 70.458 C 367.775 70.756,367.937 71.000,368.014 71.000 C 368.090 71.000,368.243 71.300,368.353 71.667 C 368.463 72.033,368.607 72.333,368.673 72.333 C 368.739 72.333,368.886 72.558,369.000 72.833 C 369.114 73.108,369.261 73.333,369.327 73.333 C 369.393 73.333,369.537 73.633,369.647 74.000 C 369.757 74.367,369.905 74.667,369.976 74.667 C 370.046 74.667,370.207 74.929,370.333 75.250 C 370.459 75.571,370.611 75.833,370.671 75.833 C 370.731 75.833,370.878 76.129,370.997 76.491 C 371.117 76.853,371.309 77.186,371.425 77.230 C 371.541 77.274,371.686 77.541,371.748 77.822 C 371.809 78.103,371.922 78.333,371.997 78.333 C 372.072 78.333,372.212 78.558,372.308 78.833 C 372.404 79.108,372.550 79.333,372.632 79.333 C 372.714 79.333,372.870 79.633,372.980 80.000 C 373.090 80.367,373.246 80.667,373.327 80.667 C 373.407 80.667,373.524 80.897,373.586 81.178 C 373.648 81.459,373.793 81.726,373.909 81.770 C 374.024 81.814,374.217 82.147,374.336 82.509 C 374.456 82.871,374.602 83.167,374.662 83.167 C 374.722 83.167,374.874 83.429,375.000 83.750 C 375.126 84.071,375.279 84.333,375.339 84.333 C 375.400 84.333,375.575 84.615,375.728 84.958 C 376.117 85.829,376.528 86.568,376.679 86.668 C 376.749 86.715,376.860 86.965,376.925 87.223 C 376.990 87.482,377.135 87.729,377.248 87.772 C 377.360 87.815,377.550 88.147,377.670 88.509 C 377.789 88.871,377.935 89.167,377.993 89.167 C 378.052 89.167,378.195 89.429,378.311 89.750 C 378.427 90.071,378.589 90.333,378.671 90.333 C 378.753 90.333,378.910 90.633,379.020 91.000 C 379.130 91.367,379.273 91.667,379.339 91.667 C 379.406 91.667,379.553 91.892,379.667 92.167 C 379.781 92.442,379.928 92.667,379.994 92.667 C 380.060 92.667,380.204 92.967,380.314 93.333 C 380.423 93.700,380.581 94.000,380.663 94.000 C 380.745 94.000,380.907 94.263,381.023 94.583 C 381.139 94.904,381.282 95.167,381.340 95.167 C 381.399 95.167,381.546 95.467,381.667 95.833 L 381.887 96.500 388.777 96.500 L 395.667 96.500 395.667 60.000 L 395.667 23.500 389.333 23.500 L 383.000 23.500 383.000 47.179 C 383.000 71.974,383.013 71.526,382.336 69.833 C 382.207 69.512,382.060 69.212,382.009 69.167 C 381.874 69.045,381.437 68.250,380.748 66.875 C 380.416 66.210,380.086 65.667,380.015 65.667 C 379.944 65.667,379.796 65.367,379.686 65.000 C 379.577 64.633,379.430 64.333,379.360 64.333 C 379.291 64.333,379.139 64.071,379.023 63.750 C 378.907 63.429,378.757 63.167,378.689 63.167 C 378.622 63.167,378.466 62.885,378.343 62.542 C 378.220 62.198,378.067 61.879,378.002 61.833 C 377.859 61.731,377.437 60.965,377.062 60.125 C 376.908 59.781,376.733 59.500,376.672 59.500 C 376.612 59.500,376.459 59.237,376.333 58.917 C 376.207 58.596,376.055 58.333,375.996 58.333 C 375.936 58.333,375.788 58.033,375.667 57.667 C 375.546 57.300,375.402 57.000,375.347 57.000 C 375.293 57.000,375.142 56.756,375.012 56.458 C 374.883 56.160,374.731 55.879,374.674 55.833 C 374.618 55.788,374.315 55.244,374.002 54.625 C 373.688 54.006,373.384 53.500,373.326 53.500 C 373.267 53.500,373.130 53.200,373.020 52.833 C 372.910 52.467,372.762 52.167,372.691 52.167 C 372.620 52.167,372.459 51.904,372.333 51.583 C 372.207 51.262,372.055 51.000,371.996 51.000 C 371.936 51.000,371.789 50.704,371.670 50.342 C 371.550 49.980,371.358 49.648,371.242 49.603 C 371.126 49.559,370.981 49.292,370.919 49.011 C 370.857 48.730,370.749 48.500,370.679 48.500 C 370.608 48.500,370.425 48.219,370.272 47.875 C 369.897 47.037,369.475 46.269,369.332 46.167 C 369.268 46.121,369.123 45.802,369.011 45.458 C 368.899 45.115,368.743 44.833,368.665 44.833 C 368.586 44.833,368.427 44.571,368.311 44.250 C 368.195 43.929,368.052 43.667,367.993 43.667 C 367.935 43.667,367.789 43.371,367.670 43.009 C 367.550 42.647,367.358 42.314,367.242 42.270 C 367.126 42.226,366.981 41.959,366.919 41.678 C 366.857 41.397,366.749 41.167,366.679 41.167 C 366.608 41.167,366.425 40.885,366.272 40.542 C 365.883 39.671,365.472 38.932,365.321 38.832 C 365.251 38.785,365.140 38.535,365.075 38.277 C 365.010 38.018,364.865 37.771,364.752 37.728 C 364.640 37.685,364.450 37.353,364.330 36.991 C 364.211 36.629,364.065 36.333,364.007 36.333 C 363.948 36.333,363.805 36.071,363.689 35.750 C 363.573 35.429,363.411 35.167,363.329 35.167 C 363.247 35.167,363.090 34.867,362.980 34.500 C 362.870 34.133,362.725 33.833,362.657 33.833 C 362.588 33.833,362.454 33.608,362.358 33.333 C 362.262 33.058,362.117 32.833,362.035 32.833 C 361.953 32.833,361.796 32.533,361.686 32.167 C 361.577 31.800,361.421 31.500,361.340 31.500 C 361.259 31.500,361.143 31.270,361.081 30.989 C 361.019 30.708,360.874 30.441,360.758 30.397 C 360.642 30.352,360.450 30.020,360.330 29.658 C 360.211 29.296,360.065 29.000,360.007 29.000 C 359.948 29.000,359.805 28.738,359.689 28.417 C 359.573 28.096,359.411 27.833,359.329 27.833 C 359.247 27.833,359.090 27.533,358.980 27.167 C 358.870 26.800,358.727 26.500,358.661 26.500 C 358.594 26.500,358.447 26.275,358.333 26.000 C 358.219 25.725,358.072 25.500,358.006 25.500 C 357.940 25.500,357.796 25.200,357.686 24.833 C 357.577 24.467,357.423 24.167,357.346 24.167 C 357.269 24.167,357.166 24.017,357.118 23.833 C 357.034 23.511,356.894 23.500,352.807 23.506 L 348.583 23.513 349.376 24.215 M333.370 43.926 C 332.882 44.268,332.901 44.500,333.417 44.500 C 333.750 44.500,333.833 44.417,333.833 44.083 C 333.833 43.592,333.843 43.595,333.370 43.926 M319.998 58.609 C 318.120 60.686,316.466 62.505,316.324 62.651 C 314.752 64.259,312.854 66.527,312.925 66.712 C 312.974 66.838,313.498 67.038,314.090 67.155 C 314.682 67.273,315.167 67.422,315.167 67.487 C 315.167 67.551,315.542 67.700,316.000 67.817 C 316.458 67.935,316.833 68.099,316.833 68.182 C 316.833 68.265,316.947 68.333,317.086 68.333 C 317.363 68.333,317.943 68.633,318.297 68.958 C 318.422 69.073,318.633 69.167,318.767 69.167 C 318.901 69.167,319.051 69.272,319.101 69.401 C 319.150 69.531,319.391 69.722,319.637 69.827 C 320.060 70.008,321.000 71.158,321.000 71.494 C 321.000 71.580,321.098 71.710,321.217 71.783 C 321.453 71.929,321.833 73.076,321.833 73.644 C 321.833 73.840,321.908 74.000,322.000 74.000 C 322.095 74.000,322.167 74.500,322.167 75.167 C 322.167 75.808,322.109 76.333,322.038 76.333 C 321.967 76.333,321.821 76.801,321.712 77.373 C 321.603 77.944,321.436 78.438,321.341 78.470 C 321.245 78.502,321.167 78.635,321.167 78.766 C 321.167 79.167,320.869 79.630,319.750 80.970 C 318.570 82.384,316.195 83.997,315.292 83.999 C 315.131 84.000,315.000 84.064,315.000 84.142 C 315.000 84.296,313.006 84.667,312.176 84.667 C 311.896 84.667,311.667 84.742,311.667 84.833 C 311.667 84.935,310.889 85.000,309.667 85.000 C 308.567 85.000,307.667 84.940,307.667 84.867 C 307.667 84.794,306.979 84.647,306.140 84.541 C 305.300 84.435,304.568 84.286,304.515 84.209 C 304.461 84.132,304.098 83.967,303.708 83.841 C 303.319 83.716,303.000 83.558,303.000 83.491 C 303.000 83.424,302.831 83.327,302.625 83.275 C 302.227 83.175,301.707 82.822,301.052 82.208 C 300.832 82.002,300.597 81.833,300.529 81.833 C 300.462 81.833,300.279 81.683,300.122 81.500 C 299.716 81.026,299.641 81.058,298.662 82.125 C 292.847 88.461,290.656 90.891,290.492 91.189 C 290.338 91.469,290.961 92.333,291.316 92.333 C 291.407 92.333,291.582 92.478,291.706 92.655 C 291.830 92.831,292.134 93.068,292.382 93.181 C 292.630 93.294,292.833 93.441,292.833 93.507 C 292.833 93.572,293.058 93.719,293.333 93.833 C 293.608 93.947,293.833 94.092,293.833 94.156 C 293.833 94.219,294.096 94.374,294.417 94.500 C 294.737 94.626,295.000 94.782,295.000 94.846 C 295.000 94.910,295.337 95.063,295.750 95.185 C 296.162 95.306,296.500 95.457,296.500 95.520 C 296.500 95.582,296.875 95.723,297.333 95.833 C 297.792 95.943,298.167 96.092,298.167 96.164 C 298.167 96.237,298.673 96.390,299.292 96.505 C 299.910 96.621,300.454 96.767,300.500 96.830 C 300.605 96.974,302.788 97.333,303.560 97.333 C 303.878 97.333,304.170 97.427,304.208 97.542 C 304.300 97.817,314.781 97.847,314.964 97.572 C 315.030 97.475,315.907 97.301,316.914 97.186 C 317.921 97.071,318.783 96.918,318.830 96.846 C 318.878 96.774,319.423 96.621,320.042 96.505 C 320.660 96.390,321.167 96.241,321.167 96.174 C 321.167 96.108,321.579 95.954,322.083 95.833 C 322.587 95.712,323.000 95.562,323.000 95.500 C 323.000 95.438,323.300 95.288,323.667 95.167 C 324.033 95.046,324.333 94.896,324.333 94.833 C 324.333 94.771,324.633 94.621,325.000 94.500 C 325.367 94.379,325.667 94.218,325.667 94.142 C 325.667 94.066,325.910 93.903,326.208 93.778 C 326.506 93.654,326.853 93.428,326.979 93.276 C 327.105 93.124,327.273 93.000,327.354 93.000 C 327.434 93.000,327.789 92.719,328.141 92.375 C 328.494 92.031,328.981 91.608,329.225 91.435 C 329.468 91.262,329.667 91.037,329.668 90.935 C 329.669 90.833,329.968 90.487,330.333 90.167 C 330.698 89.846,330.997 89.487,330.998 89.370 C 330.999 89.252,331.110 89.114,331.244 89.063 C 331.378 89.011,331.533 88.827,331.588 88.652 C 331.643 88.478,331.783 88.241,331.899 88.125 C 332.145 87.879,332.544 87.175,332.938 86.292 C 333.092 85.948,333.273 85.667,333.342 85.667 C 333.411 85.667,333.557 85.292,333.667 84.833 C 333.777 84.375,333.916 84.000,333.976 84.000 C 334.113 84.000,334.500 82.782,334.500 82.350 C 334.500 82.173,334.572 82.003,334.661 81.972 C 334.749 81.942,334.915 81.354,335.030 80.667 C 335.144 79.979,335.315 79.363,335.410 79.298 C 335.649 79.134,335.648 70.532,335.409 70.369 C 335.313 70.304,335.140 69.577,335.024 68.753 C 334.908 67.930,334.751 67.218,334.676 67.170 C 334.601 67.122,334.444 66.652,334.327 66.125 C 334.210 65.598,334.063 65.167,334.000 65.167 C 333.938 65.167,333.788 64.867,333.667 64.500 C 333.546 64.133,333.396 63.833,333.333 63.833 C 333.271 63.833,333.121 63.533,333.000 63.167 C 332.879 62.800,332.715 62.500,332.636 62.500 C 332.557 62.500,332.420 62.313,332.333 62.083 C 332.246 61.854,332.098 61.667,332.004 61.667 C 331.910 61.667,331.833 61.587,331.833 61.490 C 331.833 60.899,327.768 56.833,327.176 56.833 C 327.079 56.833,327.000 56.756,327.000 56.663 C 327.000 56.569,326.813 56.420,326.583 56.333 C 326.354 56.246,326.167 56.110,326.167 56.031 C 326.167 55.951,325.867 55.796,325.500 55.686 C 325.133 55.577,324.833 55.427,324.833 55.353 C 324.833 55.247,323.756 54.833,323.479 54.833 C 323.442 54.833,321.876 56.533,319.998 58.609 M285.500 71.957 C 284.996 71.991,284.512 72.090,284.425 72.176 C 284.338 72.263,283.830 72.333,283.296 72.333 L 282.326 72.333 282.438 73.708 C 282.499 74.465,282.614 75.108,282.692 75.139 C 282.770 75.169,282.833 75.404,282.833 75.660 C 282.833 77.376,283.160 77.500,284.285 76.208 C 284.744 75.681,285.768 74.540,286.560 73.672 C 288.419 71.634,288.493 71.754,285.500 71.957 " stroke="none" fill="#04bccc" fill-rule="evenodd"></path><path id="path1" d="M337.725 16.954 C 336.822 17.937,336.008 18.842,335.917 18.965 C 335.825 19.089,335.262 19.700,334.667 20.325 C 334.071 20.949,333.227 21.863,332.792 22.355 C 332.357 22.847,331.587 23.700,331.080 24.250 C 330.574 24.800,329.880 25.565,329.538 25.951 C 329.196 26.336,328.604 26.989,328.222 27.402 C 327.721 27.943,327.552 28.248,327.618 28.498 C 327.686 28.758,327.465 29.103,326.729 29.882 C 325.799 30.868,324.560 32.221,320.989 36.146 C 320.124 37.097,319.242 38.090,319.030 38.354 C 318.817 38.618,318.484 38.833,318.291 38.833 C 317.940 38.833,316.056 40.648,314.833 42.163 C 314.512 42.561,313.868 43.284,313.401 43.769 C 312.934 44.254,312.362 44.898,312.131 45.201 C 311.899 45.503,311.194 46.281,310.563 46.930 C 308.689 48.860,308.193 49.480,308.273 49.793 C 308.351 50.095,307.714 50.867,304.661 54.167 C 303.770 55.129,302.272 56.779,301.331 57.833 C 298.606 60.886,297.802 61.667,297.380 61.667 C 297.171 61.667,297.000 61.733,297.000 61.813 C 297.000 61.894,296.381 62.600,295.625 63.382 C 294.869 64.165,293.800 65.316,293.250 65.941 C 291.369 68.077,290.750 68.748,290.458 68.967 C 290.298 69.087,290.167 69.248,290.167 69.323 C 290.167 69.399,289.677 69.966,289.078 70.583 C 288.159 71.529,288.028 71.734,288.239 71.894 C 288.451 72.054,288.328 72.253,287.453 73.176 C 286.883 73.777,285.751 74.999,284.938 75.892 C 284.008 76.913,283.358 77.496,283.188 77.460 C 282.932 77.408,281.667 78.471,281.667 78.738 C 281.667 78.807,281.273 79.253,280.792 79.730 C 280.310 80.207,279.354 81.231,278.667 82.007 C 277.980 82.782,277.305 83.508,277.167 83.620 C 276.948 83.797,276.953 83.823,277.208 83.828 C 277.741 83.838,277.413 84.256,273.746 88.249 C 271.084 91.148,270.000 92.376,270.000 92.492 C 270.000 92.548,270.900 93.408,272.000 94.403 C 273.975 96.190,274.235 96.500,273.755 96.500 C 273.399 96.500,273.606 96.891,274.130 97.209 C 274.579 97.480,275.060 97.890,276.833 99.511 C 277.337 99.972,278.237 100.794,278.833 101.338 C 279.820 102.239,280.823 102.674,280.837 102.208 C 280.839 102.140,281.108 101.783,281.435 101.417 C 282.585 100.127,284.261 98.302,285.250 97.263 C 285.800 96.685,286.400 96.025,286.583 95.795 C 286.959 95.323,289.583 92.454,290.063 91.988 C 290.262 91.796,290.343 91.554,290.284 91.330 C 290.185 90.952,290.297 90.814,293.571 87.261 C 296.315 84.284,297.197 83.311,298.239 82.113 C 298.946 81.300,299.314 81.000,299.530 81.056 C 299.803 81.127,301.634 79.467,301.803 78.996 C 301.832 78.915,302.401 78.289,303.066 77.607 C 303.731 76.924,304.606 75.964,305.009 75.474 C 305.413 74.984,306.213 74.097,306.788 73.503 C 307.363 72.909,307.833 72.373,307.833 72.312 C 307.833 72.252,308.415 71.610,309.125 70.886 C 309.835 70.162,310.829 69.091,311.333 68.507 C 311.837 67.922,312.380 67.308,312.538 67.142 C 312.696 66.977,312.783 66.730,312.731 66.595 C 312.607 66.271,312.778 66.045,314.767 63.900 C 316.407 62.131,319.946 58.215,321.932 55.971 C 322.547 55.277,323.052 54.855,323.276 54.846 C 323.726 54.830,326.433 52.123,327.038 51.085 C 327.104 50.971,327.742 50.275,328.454 49.539 C 329.592 48.364,330.283 47.619,332.492 45.179 C 332.845 44.789,332.947 44.570,332.814 44.488 C 332.460 44.269,333.291 43.299,333.663 43.498 C 333.913 43.632,334.066 43.548,334.495 43.039 C 334.784 42.697,335.203 42.223,335.427 41.986 C 335.650 41.749,335.833 41.513,335.833 41.461 C 335.833 41.409,336.265 40.918,336.792 40.369 C 338.298 38.802,340.908 35.974,341.436 35.338 C 342.057 34.589,342.389 34.218,343.092 33.483 C 343.408 33.152,343.669 32.740,343.673 32.566 C 343.682 32.079,343.999 31.608,345.087 30.467 C 345.638 29.889,346.725 28.709,347.503 27.844 C 348.280 26.980,349.123 26.044,349.375 25.766 C 349.945 25.136,349.966 25.213,349.000 24.417 C 348.086 23.664,348.005 23.501,348.542 23.498 C 349.009 23.495,347.605 22.111,344.824 19.833 C 344.432 19.512,343.594 18.762,342.961 18.167 C 342.327 17.571,341.693 17.018,341.550 16.938 C 341.407 16.858,340.949 16.427,340.532 15.980 C 339.541 14.916,339.622 14.888,337.725 16.954 M1.167 58.083 L 1.167 96.500 12.000 96.500 L 22.833 96.500 22.833 81.083 L 22.833 65.667 34.167 65.667 L 45.500 65.667 45.500 81.083 L 45.500 96.500 56.333 96.500 L 67.167 96.500 67.167 58.083 L 67.167 19.667 56.333 19.667 L 45.500 19.667 45.500 33.000 L 45.500 46.333 34.167 46.333 L 22.833 46.333 22.833 33.000 L 22.833 19.667 12.000 19.667 L 1.167 19.667 1.167 58.083 M97.591 42.361 C 96.312 42.442,95.224 42.570,95.174 42.646 C 95.124 42.722,94.465 42.880,93.708 42.996 C 92.952 43.112,92.333 43.263,92.333 43.331 C 92.333 43.399,91.883 43.550,91.333 43.667 C 90.783 43.783,90.333 43.935,90.333 44.004 C 90.333 44.073,90.073 44.178,89.755 44.238 C 89.437 44.298,89.079 44.445,88.959 44.565 C 88.839 44.685,88.462 44.875,88.120 44.988 C 87.779 45.100,87.500 45.256,87.500 45.333 C 87.500 45.410,87.275 45.523,87.001 45.583 C 86.727 45.643,86.445 45.785,86.376 45.898 C 86.307 46.011,86.012 46.199,85.720 46.317 C 85.429 46.434,85.150 46.636,85.101 46.765 C 85.051 46.894,84.898 47.000,84.761 47.000 C 84.624 47.000,84.431 47.150,84.333 47.333 C 84.235 47.517,84.074 47.667,83.974 47.667 C 83.784 47.667,80.167 51.206,80.167 51.392 C 80.167 51.451,80.049 51.631,79.905 51.792 C 79.242 52.529,78.834 53.101,78.834 53.292 C 78.833 53.406,78.754 53.500,78.658 53.500 C 78.562 53.500,78.404 53.725,78.308 54.000 C 78.212 54.275,78.071 54.500,77.994 54.500 C 77.918 54.500,77.760 54.762,77.644 55.083 C 77.528 55.404,77.385 55.667,77.327 55.667 C 77.268 55.667,77.121 55.967,77.000 56.333 C 76.879 56.700,76.726 57.000,76.660 57.000 C 76.594 57.000,76.455 57.337,76.351 57.750 C 76.247 58.163,76.098 58.500,76.020 58.500 C 75.943 58.500,75.783 58.950,75.667 59.500 C 75.550 60.050,75.403 60.500,75.341 60.500 C 75.278 60.500,75.128 61.119,75.008 61.875 C 74.888 62.631,74.734 63.325,74.665 63.417 C 74.054 64.237,74.043 76.198,74.654 76.667 C 74.713 76.712,74.856 77.313,74.970 78.000 C 75.085 78.688,75.251 79.275,75.339 79.306 C 75.428 79.336,75.500 79.518,75.500 79.710 C 75.500 80.083,75.850 81.194,76.011 81.333 C 76.065 81.379,76.206 81.773,76.326 82.208 C 76.445 82.644,76.603 83.000,76.675 83.000 C 76.748 83.000,76.899 83.281,77.011 83.625 C 77.123 83.969,77.271 84.287,77.339 84.333 C 77.407 84.379,77.585 84.679,77.736 85.000 C 78.105 85.788,78.441 86.357,78.610 86.481 C 78.687 86.537,78.862 86.780,79.000 87.020 C 79.572 88.020,83.630 92.333,83.998 92.333 C 84.089 92.333,84.258 92.483,84.372 92.667 C 84.487 92.850,84.660 93.000,84.759 93.000 C 84.857 93.000,85.086 93.138,85.267 93.308 C 85.613 93.629,86.183 93.966,87.167 94.429 C 87.487 94.580,87.787 94.760,87.833 94.828 C 87.879 94.896,88.198 95.043,88.542 95.155 C 88.885 95.267,89.167 95.416,89.167 95.486 C 89.167 95.556,89.579 95.712,90.083 95.833 C 90.587 95.954,91.000 96.106,91.000 96.171 C 91.000 96.235,91.469 96.384,92.042 96.502 C 92.615 96.620,93.158 96.771,93.250 96.836 C 93.455 96.984,95.803 97.333,96.590 97.333 C 96.907 97.333,97.167 97.408,97.167 97.500 C 97.167 97.607,98.667 97.667,101.333 97.667 C 104.000 97.667,105.500 97.607,105.500 97.500 C 105.500 97.408,105.759 97.333,106.077 97.333 C 106.864 97.333,109.211 96.984,109.417 96.836 C 109.508 96.771,110.052 96.620,110.625 96.502 C 111.198 96.384,111.667 96.235,111.667 96.170 C 111.667 96.106,112.079 95.961,112.583 95.848 C 113.087 95.735,113.500 95.574,113.500 95.490 C 113.500 95.407,113.837 95.253,114.250 95.149 C 114.662 95.045,115.000 94.908,115.000 94.845 C 115.000 94.781,115.263 94.626,115.583 94.500 C 115.904 94.374,116.167 94.219,116.167 94.156 C 116.167 94.092,116.392 93.947,116.667 93.833 C 116.942 93.719,117.167 93.572,117.167 93.507 C 117.167 93.441,117.357 93.300,117.590 93.194 C 118.060 92.980,118.350 92.763,118.910 92.208 C 119.118 92.002,119.345 91.833,119.414 91.833 C 119.575 91.833,121.833 89.592,121.833 89.432 C 121.833 89.365,122.096 89.063,122.417 88.761 C 122.737 88.458,123.000 88.123,123.000 88.017 C 123.000 87.910,123.106 87.782,123.235 87.733 C 123.364 87.683,123.560 87.423,123.672 87.155 C 123.783 86.886,123.931 86.667,124.000 86.667 C 124.069 86.667,124.219 86.442,124.333 86.167 C 124.447 85.892,124.600 85.667,124.674 85.667 C 124.747 85.667,124.857 85.437,124.919 85.155 C 124.981 84.874,125.126 84.608,125.242 84.563 C 125.358 84.519,125.550 84.187,125.670 83.825 C 125.789 83.463,125.936 83.167,125.995 83.167 C 126.055 83.167,126.204 82.775,126.327 82.297 C 126.449 81.818,126.646 81.330,126.765 81.211 C 126.883 81.093,127.033 80.641,127.097 80.206 C 127.161 79.772,127.275 79.376,127.351 79.327 C 127.427 79.278,127.582 78.678,127.697 77.994 C 127.811 77.310,127.953 76.712,128.013 76.667 C 128.616 76.204,128.621 63.433,128.018 63.000 C 127.954 62.954,127.804 62.317,127.684 61.583 C 127.563 60.850,127.409 60.212,127.340 60.167 C 127.271 60.121,127.122 59.690,127.008 59.208 C 126.893 58.727,126.745 58.333,126.677 58.333 C 126.609 58.333,126.454 57.921,126.333 57.417 C 126.212 56.913,126.053 56.500,125.980 56.500 C 125.907 56.500,125.757 56.200,125.647 55.833 C 125.537 55.467,125.393 55.167,125.327 55.167 C 125.261 55.167,125.114 54.942,125.000 54.667 C 124.886 54.392,124.741 54.167,124.678 54.167 C 124.614 54.167,124.459 53.904,124.333 53.583 C 124.207 53.262,124.042 53.000,123.965 53.000 C 123.888 53.000,123.754 52.813,123.667 52.583 C 123.580 52.354,123.443 52.167,123.364 52.167 C 123.285 52.167,123.128 51.964,123.015 51.716 C 122.902 51.467,122.665 51.163,122.488 51.039 C 122.311 50.916,122.167 50.743,122.167 50.656 C 122.167 50.517,120.219 48.533,119.636 48.079 C 119.516 47.985,119.081 47.647,118.671 47.329 C 118.261 47.010,117.829 46.661,117.711 46.553 C 117.594 46.444,117.348 46.308,117.166 46.250 C 116.983 46.192,116.833 46.088,116.833 46.020 C 116.833 45.951,116.571 45.793,116.250 45.667 C 115.929 45.541,115.667 45.389,115.667 45.329 C 115.667 45.269,115.367 45.121,115.000 45.000 C 114.633 44.879,114.333 44.729,114.333 44.667 C 114.333 44.604,113.921 44.454,113.417 44.333 C 112.912 44.212,112.500 44.061,112.500 43.996 C 112.500 43.932,112.050 43.783,111.500 43.667 C 110.950 43.550,110.500 43.397,110.500 43.328 C 110.500 43.258,109.844 43.109,109.042 42.996 C 108.240 42.883,107.545 42.731,107.498 42.658 C 107.405 42.513,102.222 42.152,100.798 42.191 C 100.313 42.204,98.870 42.281,97.591 42.361 M160.767 42.344 C 160.134 42.417,159.572 42.546,159.517 42.631 C 159.462 42.716,159.023 42.878,158.542 42.992 C 158.060 43.107,157.667 43.249,157.667 43.309 C 157.667 43.369,157.458 43.511,157.202 43.624 C 156.622 43.881,154.391 46.055,154.249 46.502 C 154.192 46.684,154.083 46.833,154.009 46.833 C 153.935 46.833,153.781 47.058,153.667 47.333 C 153.553 47.608,153.399 47.833,153.324 47.833 C 153.249 47.833,153.093 48.096,152.977 48.417 C 152.861 48.737,152.718 49.000,152.660 49.000 C 152.601 49.000,152.454 49.300,152.333 49.667 C 152.212 50.033,152.056 50.333,151.986 50.333 C 151.915 50.333,151.823 50.465,151.782 50.625 C 151.740 50.785,151.697 49.248,151.686 47.208 L 151.667 43.500 143.000 43.500 L 134.333 43.500 134.333 70.000 L 134.333 96.500 143.654 96.500 L 152.975 96.500 153.029 83.327 C 153.067 74.131,153.138 70.119,153.263 70.036 C 153.362 69.970,153.540 69.035,153.658 67.958 C 153.776 66.881,153.925 66.000,153.989 66.000 C 154.053 66.000,154.202 65.512,154.321 64.917 C 154.439 64.321,154.603 63.833,154.685 63.833 C 154.766 63.833,154.833 63.708,154.833 63.555 C 154.833 63.172,155.825 61.167,156.014 61.167 C 156.098 61.167,156.167 61.069,156.167 60.949 C 156.167 60.697,157.716 59.167,157.971 59.167 C 158.066 59.167,158.260 59.050,158.403 58.907 C 159.025 58.285,163.116 58.212,163.489 58.816 C 163.542 58.900,163.869 59.023,164.217 59.088 C 164.565 59.153,164.954 59.311,165.082 59.439 C 165.640 59.997,166.281 59.913,166.403 59.267 C 166.464 58.937,166.573 58.667,166.644 58.667 C 166.715 58.667,166.875 58.292,167.000 57.833 C 167.125 57.375,167.276 57.000,167.337 57.000 C 167.397 57.000,167.546 56.587,167.667 56.083 C 167.788 55.579,167.941 55.167,168.007 55.167 C 168.073 55.167,168.212 54.829,168.316 54.417 C 168.420 54.004,168.567 53.667,168.643 53.667 C 168.718 53.667,168.873 53.254,168.985 52.750 C 169.098 52.246,169.248 51.833,169.319 51.833 C 169.389 51.833,169.546 51.421,169.667 50.917 C 169.788 50.413,169.936 50.000,169.996 50.000 C 170.057 50.000,170.209 49.625,170.333 49.167 C 170.458 48.708,170.614 48.333,170.680 48.333 C 170.746 48.333,170.890 47.958,171.000 47.500 C 171.110 47.042,171.252 46.667,171.315 46.667 C 171.479 46.667,171.858 45.175,171.743 44.988 C 171.690 44.903,171.539 44.833,171.407 44.833 C 171.275 44.833,171.167 44.761,171.167 44.673 C 171.167 44.585,170.867 44.423,170.500 44.314 C 170.133 44.204,169.833 44.054,169.833 43.980 C 169.833 43.907,169.533 43.757,169.167 43.647 C 168.800 43.537,168.500 43.396,168.500 43.333 C 168.500 43.271,168.069 43.124,167.542 43.006 C 167.015 42.889,166.544 42.732,166.496 42.657 C 166.403 42.510,163.306 42.152,162.441 42.189 C 162.152 42.201,161.399 42.271,160.767 42.344 M191.428 42.356 C 189.876 42.433,188.563 42.557,188.511 42.632 C 188.459 42.706,187.704 42.866,186.833 42.986 C 185.963 43.106,185.213 43.258,185.167 43.324 C 185.121 43.390,184.615 43.542,184.042 43.661 C 183.469 43.781,183.000 43.935,183.000 44.004 C 183.000 44.073,182.662 44.230,182.250 44.351 C 181.838 44.473,181.500 44.617,181.500 44.672 C 181.500 44.726,181.237 44.874,180.917 45.000 C 180.596 45.126,180.333 45.276,180.333 45.333 C 180.333 45.391,180.074 45.540,179.757 45.664 C 179.440 45.788,179.142 45.990,179.096 46.112 C 179.049 46.234,178.914 46.334,178.797 46.335 C 178.679 46.336,178.321 46.635,178.000 47.000 C 177.679 47.365,177.321 47.664,177.203 47.665 C 177.086 47.666,176.939 47.798,176.878 47.958 C 176.817 48.119,176.519 48.484,176.217 48.770 C 175.914 49.056,175.667 49.377,175.667 49.483 C 175.667 49.590,175.567 49.715,175.445 49.762 C 175.323 49.809,175.122 50.107,174.997 50.424 C 174.873 50.741,174.722 51.000,174.662 51.000 C 174.602 51.000,174.454 51.300,174.333 51.667 C 174.212 52.033,174.056 52.333,173.985 52.333 C 173.915 52.333,173.763 52.765,173.647 53.292 C 173.532 53.819,173.383 54.288,173.317 54.334 C 172.726 54.746,172.728 62.942,173.319 63.330 C 173.392 63.378,173.545 63.810,173.659 64.292 C 173.773 64.773,173.922 65.167,173.990 65.167 C 174.058 65.167,174.212 65.467,174.333 65.833 C 174.454 66.200,174.601 66.500,174.660 66.500 C 174.718 66.500,174.859 66.755,174.972 67.067 C 175.084 67.380,175.287 67.677,175.422 67.729 C 175.556 67.781,175.667 67.935,175.667 68.072 C 175.667 68.209,175.817 68.402,176.000 68.500 C 176.183 68.598,176.333 68.765,176.333 68.870 C 176.333 68.976,176.840 69.535,177.458 70.114 C 178.970 71.528,179.038 71.582,179.642 71.849 C 179.930 71.977,180.167 72.135,180.167 72.201 C 180.167 72.266,180.467 72.410,180.833 72.520 C 181.200 72.630,181.500 72.769,181.500 72.830 C 181.500 72.890,181.875 73.042,182.333 73.167 C 182.792 73.291,183.167 73.448,183.167 73.515 C 183.167 73.582,183.692 73.725,184.333 73.833 C 184.975 73.942,185.500 74.088,185.500 74.158 C 185.500 74.229,186.081 74.384,186.792 74.504 C 187.502 74.624,188.121 74.776,188.167 74.843 C 188.213 74.910,188.850 75.063,189.583 75.184 C 190.317 75.304,190.954 75.450,191.000 75.510 C 191.046 75.569,191.815 75.717,192.708 75.839 C 193.602 75.960,194.333 76.108,194.333 76.167 C 194.333 76.226,195.046 76.376,195.917 76.500 C 196.787 76.624,197.500 76.778,197.500 76.843 C 197.500 76.907,198.100 77.058,198.833 77.177 C 199.567 77.296,200.167 77.447,200.167 77.511 C 200.167 77.576,200.433 77.680,200.758 77.741 C 201.830 77.942,203.667 79.138,203.667 79.636 C 203.667 79.735,203.789 79.885,203.938 79.969 C 205.193 80.671,203.561 84.394,201.661 85.164 C 201.343 85.292,201.046 85.446,201.000 85.505 C 200.860 85.686,199.392 86.000,198.686 86.000 C 198.320 86.000,197.973 86.075,197.917 86.167 C 197.860 86.258,197.593 86.333,197.323 86.333 C 197.054 86.333,196.833 86.258,196.833 86.167 C 196.833 86.075,196.546 86.000,196.194 86.000 C 195.375 86.000,193.667 85.659,193.667 85.495 C 193.667 85.426,193.498 85.327,193.292 85.275 C 192.688 85.123,191.000 83.705,191.000 83.350 C 191.000 83.243,190.900 83.118,190.778 83.071 C 190.656 83.024,190.455 82.727,190.331 82.410 C 190.206 82.093,190.058 81.833,190.000 81.833 C 189.943 81.833,189.803 81.477,189.690 81.042 C 189.295 79.528,189.439 79.575,185.960 79.825 C 184.286 79.946,182.879 80.097,182.833 80.162 C 182.787 80.226,181.306 80.379,179.542 80.500 C 177.777 80.622,176.333 80.771,176.333 80.831 C 176.333 80.892,175.118 81.033,173.633 81.144 C 172.147 81.255,170.899 81.379,170.859 81.419 C 170.744 81.534,171.199 84.000,171.334 84.000 C 171.400 84.000,171.550 84.450,171.667 85.000 C 171.783 85.550,171.932 86.000,171.996 86.000 C 172.061 86.000,172.204 86.300,172.314 86.667 C 172.423 87.033,172.573 87.333,172.647 87.333 C 172.720 87.333,172.870 87.633,172.980 88.000 C 173.090 88.367,173.240 88.667,173.313 88.667 C 173.387 88.667,173.533 88.857,173.639 89.090 C 173.853 89.560,174.070 89.850,174.625 90.410 C 174.831 90.618,175.000 90.850,175.000 90.925 C 175.000 91.000,175.506 91.535,176.125 92.114 C 177.599 93.493,177.806 93.667,177.974 93.667 C 178.052 93.667,178.248 93.814,178.411 93.994 C 178.574 94.174,178.960 94.404,179.270 94.507 C 179.580 94.609,179.833 94.762,179.833 94.846 C 179.833 94.931,179.930 95.000,180.048 95.000 C 180.166 95.000,180.560 95.153,180.923 95.339 C 181.286 95.526,181.921 95.763,182.333 95.866 C 182.746 95.970,183.123 96.113,183.172 96.186 C 183.220 96.259,183.820 96.409,184.505 96.520 C 185.190 96.631,185.789 96.780,185.837 96.851 C 185.885 96.922,187.028 97.075,188.379 97.192 C 189.729 97.308,190.833 97.463,190.833 97.535 C 190.833 97.608,193.233 97.667,196.167 97.667 C 199.611 97.667,201.500 97.608,201.500 97.500 C 201.500 97.408,201.814 97.333,202.197 97.333 C 203.306 97.333,205.833 96.971,205.833 96.812 C 205.833 96.732,205.998 96.667,206.198 96.667 C 206.751 96.667,208.500 96.282,208.500 96.160 C 208.500 96.101,208.912 95.954,209.417 95.833 C 209.921 95.712,210.333 95.562,210.333 95.500 C 210.333 95.438,210.633 95.288,211.000 95.167 C 211.367 95.046,211.667 94.899,211.667 94.840 C 211.667 94.782,211.929 94.639,212.250 94.523 C 212.571 94.407,212.833 94.249,212.833 94.172 C 212.833 94.095,213.058 93.954,213.333 93.858 C 213.608 93.762,213.833 93.605,213.833 93.509 C 213.833 93.412,213.938 93.333,214.066 93.333 C 214.194 93.333,214.475 93.147,214.691 92.920 C 214.907 92.692,215.145 92.504,215.219 92.503 C 215.383 92.499,217.497 90.374,217.507 90.203 C 217.510 90.137,217.735 89.824,218.007 89.506 C 218.278 89.189,218.500 88.833,218.500 88.715 C 218.500 88.597,218.561 88.500,218.636 88.500 C 218.710 88.500,218.874 88.237,219.000 87.917 C 219.126 87.596,219.289 87.333,219.362 87.333 C 219.435 87.333,219.580 86.996,219.684 86.583 C 219.788 86.171,219.930 85.833,219.999 85.833 C 220.068 85.833,220.225 85.383,220.347 84.833 C 220.469 84.283,220.619 83.833,220.681 83.833 C 220.901 83.833,221.167 81.282,221.167 79.167 C 221.167 76.996,220.900 74.500,220.667 74.500 C 220.598 74.500,220.495 74.256,220.437 73.958 C 220.309 73.292,218.847 70.333,218.646 70.333 C 218.566 70.333,218.499 70.240,218.497 70.125 C 218.492 69.761,216.178 67.167,215.859 67.167 C 215.785 67.167,215.549 66.979,215.333 66.750 C 215.118 66.521,214.849 66.333,214.735 66.333 C 214.621 66.333,214.503 66.267,214.472 66.187 C 214.408 66.018,211.569 64.500,211.317 64.500 C 211.224 64.500,210.834 64.358,210.449 64.186 C 210.065 64.013,209.487 63.819,209.167 63.756 C 208.846 63.693,208.357 63.540,208.081 63.415 C 207.805 63.291,207.168 63.136,206.665 63.072 C 206.162 63.008,205.675 62.899,205.583 62.829 C 205.492 62.759,204.704 62.606,203.833 62.489 C 202.963 62.371,202.174 62.219,202.080 62.150 C 201.987 62.080,200.937 61.934,199.747 61.824 C 198.557 61.714,197.508 61.569,197.417 61.501 C 197.325 61.433,196.500 61.283,195.583 61.167 C 194.667 61.051,193.842 60.900,193.750 60.833 C 193.658 60.766,193.175 60.615,192.677 60.498 C 190.615 60.014,189.500 58.922,189.500 57.385 C 189.500 55.915,189.853 55.197,191.062 54.210 C 191.481 53.868,193.854 53.284,194.838 53.281 C 195.830 53.278,198.833 53.949,198.833 54.174 C 198.833 54.249,199.002 54.364,199.208 54.428 C 199.646 54.565,201.000 55.866,201.000 56.150 C 201.000 56.257,201.106 56.384,201.235 56.434 C 201.365 56.484,201.568 56.856,201.688 57.262 C 201.808 57.668,201.965 58.000,202.036 58.000 C 202.108 58.000,202.167 58.122,202.167 58.271 C 202.167 58.560,206.140 58.467,206.333 58.173 C 206.379 58.104,207.748 57.949,209.375 57.830 C 211.002 57.710,212.333 57.561,212.333 57.499 C 212.333 57.436,213.683 57.287,215.333 57.167 C 216.983 57.047,218.333 56.885,218.333 56.807 C 218.333 56.730,218.633 56.667,219.000 56.667 C 219.786 56.667,219.881 56.312,219.356 55.331 C 219.184 55.011,218.991 54.506,218.926 54.208 C 218.860 53.910,218.750 53.667,218.680 53.667 C 218.610 53.667,218.454 53.367,218.333 53.000 C 218.212 52.633,218.062 52.333,218.000 52.333 C 217.938 52.333,217.788 52.033,217.667 51.667 C 217.546 51.300,217.385 51.000,217.309 51.000 C 217.233 51.000,217.069 50.756,216.945 50.458 C 216.820 50.160,216.594 49.814,216.442 49.688 C 216.291 49.562,216.167 49.391,216.167 49.307 C 216.167 49.224,215.942 48.935,215.667 48.667 C 215.392 48.398,215.166 48.119,215.165 48.047 C 215.163 47.889,214.094 46.833,213.935 46.833 C 213.873 46.833,213.618 46.627,213.368 46.375 C 213.118 46.123,212.689 45.804,212.415 45.667 C 212.141 45.530,211.857 45.323,211.783 45.209 C 211.710 45.094,211.547 45.000,211.420 45.000 C 211.294 45.000,211.089 44.899,210.966 44.775 C 210.842 44.651,210.462 44.458,210.120 44.346 C 209.779 44.233,209.500 44.079,209.500 44.004 C 209.500 43.928,209.106 43.773,208.625 43.659 C 208.144 43.545,207.710 43.391,207.662 43.317 C 207.613 43.243,206.863 43.090,205.995 42.977 C 205.127 42.863,204.376 42.712,204.326 42.640 C 204.233 42.505,197.029 42.150,195.250 42.193 C 194.700 42.206,192.980 42.279,191.428 42.356 M103.485 56.790 C 103.539 56.867,103.898 57.032,104.283 57.156 C 104.668 57.280,105.022 57.483,105.069 57.607 C 105.117 57.732,105.252 57.835,105.370 57.836 C 105.630 57.840,107.570 59.801,107.718 60.208 C 107.775 60.369,107.888 60.500,107.968 60.500 C 108.048 60.500,108.212 60.800,108.333 61.167 C 108.454 61.533,108.604 61.833,108.667 61.833 C 108.729 61.833,108.881 62.265,109.005 62.792 C 109.129 63.319,109.285 63.788,109.351 63.834 C 109.521 63.953,109.833 66.335,109.833 67.512 C 109.833 68.060,109.908 68.500,110.000 68.500 C 110.098 68.500,110.167 69.080,110.167 69.907 C 110.167 70.681,110.092 71.360,110.000 71.417 C 109.908 71.473,109.833 71.895,109.833 72.353 C 109.833 73.493,109.474 76.333,109.329 76.333 C 109.265 76.333,109.117 76.783,109.000 77.333 C 108.883 77.883,108.729 78.333,108.657 78.333 C 108.585 78.333,108.434 78.615,108.323 78.958 C 108.211 79.302,108.018 79.643,107.893 79.717 C 107.769 79.790,107.667 79.929,107.667 80.026 C 107.667 80.316,105.692 82.333,105.408 82.333 C 105.357 82.333,105.040 82.520,104.704 82.749 C 104.367 82.978,103.733 83.213,103.296 83.271 C 102.858 83.329,102.500 83.442,102.500 83.521 C 102.500 83.724,100.376 83.704,100.250 83.500 C 100.193 83.408,99.988 83.333,99.794 83.333 C 99.438 83.333,98.321 82.991,98.167 82.834 C 98.121 82.787,97.861 82.637,97.588 82.500 C 97.100 82.253,95.167 80.436,95.167 80.224 C 95.167 80.164,94.990 79.883,94.774 79.599 C 94.558 79.315,94.328 78.915,94.263 78.708 C 94.198 78.502,94.085 78.333,94.012 78.333 C 93.939 78.333,93.783 77.883,93.667 77.333 C 93.550 76.783,93.400 76.333,93.332 76.333 C 93.185 76.333,92.833 73.709,92.833 72.614 C 92.833 72.185,92.758 71.833,92.667 71.833 C 92.566 71.833,92.500 71.139,92.500 70.083 C 92.500 69.028,92.566 68.333,92.667 68.333 C 92.758 68.333,92.833 67.926,92.833 67.429 C 92.833 66.292,93.153 63.946,93.324 63.834 C 93.394 63.788,93.545 63.356,93.659 62.875 C 93.773 62.394,93.925 62.000,93.996 62.000 C 94.067 62.000,94.166 61.793,94.217 61.539 C 94.268 61.286,94.465 60.900,94.655 60.681 C 94.845 60.462,95.000 60.215,95.000 60.132 C 95.000 59.881,97.080 57.883,97.470 57.760 C 97.670 57.696,97.833 57.582,97.833 57.507 C 97.833 57.431,98.040 57.318,98.292 57.255 C 98.544 57.192,98.975 57.039,99.250 56.915 C 99.525 56.791,99.900 56.650,100.083 56.603 C 100.581 56.474,103.371 56.627,103.485 56.790 " stroke="none" fill="#fbfcfc" fill-rule="evenodd"></path><path id="path2" d="M348.833 24.083 C 349.144 24.404,349.436 24.667,349.482 24.667 C 349.528 24.667,349.311 24.404,349.000 24.083 C 348.689 23.762,348.397 23.500,348.351 23.500 C 348.305 23.500,348.522 23.762,348.833 24.083 M349.324 25.958 L 348.750 26.583 349.375 26.009 C 349.957 25.474,350.077 25.333,349.949 25.333 C 349.922 25.333,349.640 25.615,349.324 25.958 M347.991 27.458 L 347.417 28.083 348.042 27.509 C 348.623 26.974,348.743 26.833,348.616 26.833 C 348.588 26.833,348.307 27.115,347.991 27.458 M346.575 29.042 L 345.917 29.750 346.625 29.091 C 347.284 28.478,347.410 28.333,347.284 28.333 C 347.257 28.333,346.938 28.652,346.575 29.042 M326.742 29.542 L 326.083 30.250 326.792 29.591 C 327.181 29.229,327.500 28.910,327.500 28.883 C 327.500 28.757,327.355 28.883,326.742 29.542 M325.158 31.292 L 324.583 31.917 325.208 31.342 C 325.790 30.808,325.910 30.667,325.783 30.667 C 325.755 30.667,325.474 30.948,325.158 31.292 M344.491 31.292 L 343.917 31.917 344.542 31.342 C 345.123 30.808,345.243 30.667,345.116 30.667 C 345.088 30.667,344.807 30.948,344.491 31.292 M323.658 32.958 L 323.083 33.583 323.708 33.009 C 324.052 32.693,324.333 32.412,324.333 32.384 C 324.333 32.257,324.192 32.377,323.658 32.958 M321.824 34.958 L 321.250 35.583 321.875 35.009 C 322.457 34.474,322.577 34.333,322.449 34.333 C 322.422 34.333,322.140 34.615,321.824 34.958 M320.406 36.542 L 319.917 37.083 320.458 36.594 C 320.963 36.138,321.077 36.000,320.948 36.000 C 320.919 36.000,320.675 36.244,320.406 36.542 M318.740 38.375 L 318.250 38.917 318.792 38.427 C 319.297 37.971,319.410 37.833,319.281 37.833 C 319.252 37.833,319.009 38.077,318.740 38.375 M307.406 50.875 L 306.917 51.417 307.458 50.927 C 307.756 50.658,308.000 50.414,308.000 50.385 C 308.000 50.257,307.862 50.370,307.406 50.875 M305.909 52.542 L 305.250 53.250 305.958 52.591 C 306.348 52.229,306.667 51.910,306.667 51.883 C 306.667 51.757,306.522 51.883,305.909 52.542 M303.824 54.792 L 303.250 55.417 303.875 54.842 C 304.219 54.526,304.500 54.245,304.500 54.217 C 304.500 54.090,304.359 54.210,303.824 54.792 M321.909 56.208 L 321.250 56.917 321.958 56.258 C 322.348 55.895,322.667 55.577,322.667 55.550 C 322.667 55.423,322.522 55.550,321.909 56.208 M302.406 56.375 L 301.917 56.917 302.458 56.427 C 302.963 55.971,303.077 55.833,302.948 55.833 C 302.919 55.833,302.675 56.077,302.406 56.375 M300.658 58.292 L 300.083 58.917 300.708 58.342 C 301.052 58.026,301.333 57.745,301.333 57.717 C 301.333 57.590,301.192 57.710,300.658 58.292 M320.073 58.208 L 319.583 58.750 320.125 58.260 C 320.630 57.804,320.743 57.667,320.615 57.667 C 320.586 57.667,320.342 57.910,320.073 58.208 M299.242 59.875 L 298.583 60.583 299.292 59.925 C 299.681 59.562,300.000 59.243,300.000 59.216 C 300.000 59.090,299.855 59.216,299.242 59.875 M318.575 59.875 L 317.917 60.583 318.625 59.925 C 319.015 59.562,319.333 59.243,319.333 59.216 C 319.333 59.090,319.188 59.216,318.575 59.875 M315.500 63.250 C 315.095 63.663,314.801 64.000,314.847 64.000 C 314.893 64.000,315.262 63.663,315.667 63.250 C 316.072 62.837,316.365 62.500,316.319 62.500 C 316.274 62.500,315.905 62.837,315.500 63.250 M313.491 65.458 L 312.917 66.083 313.542 65.509 C 313.885 65.193,314.167 64.912,314.167 64.884 C 314.167 64.757,314.026 64.877,313.491 65.458 M287.740 72.542 L 287.250 73.083 287.792 72.594 C 288.297 72.138,288.410 72.000,288.281 72.000 C 288.252 72.000,288.009 72.244,287.740 72.542 M286.075 74.375 L 285.417 75.083 286.125 74.425 C 286.515 74.062,286.833 73.743,286.833 73.716 C 286.833 73.590,286.688 73.716,286.075 74.375 M284.573 76.042 L 284.083 76.583 284.625 76.094 C 285.130 75.638,285.243 75.500,285.115 75.500 C 285.086 75.500,284.842 75.744,284.573 76.042 M298.906 81.542 L 298.417 82.083 298.999 81.583 C 299.320 81.308,299.613 81.065,299.652 81.042 C 299.691 81.019,299.649 81.000,299.559 81.000 C 299.469 81.000,299.175 81.244,298.906 81.542 M297.409 83.208 L 296.750 83.917 297.458 83.258 C 297.848 82.895,298.167 82.577,298.167 82.550 C 298.167 82.423,298.022 82.550,297.409 83.208 M276.324 85.125 L 275.750 85.750 276.375 85.176 C 276.719 84.860,277.000 84.578,277.000 84.551 C 277.000 84.423,276.859 84.543,276.324 85.125 M295.658 85.125 L 295.083 85.750 295.708 85.176 C 296.052 84.860,296.333 84.578,296.333 84.551 C 296.333 84.423,296.192 84.543,295.658 85.125 M274.575 87.042 L 273.917 87.750 274.625 87.091 C 275.284 86.478,275.410 86.333,275.284 86.333 C 275.257 86.333,274.938 86.652,274.575 87.042 M293.991 86.958 L 293.417 87.583 294.042 87.009 C 294.623 86.474,294.743 86.333,294.616 86.333 C 294.588 86.333,294.307 86.615,293.991 86.958 M272.824 88.958 L 272.250 89.583 272.875 89.009 C 273.457 88.474,273.577 88.333,273.449 88.333 C 273.422 88.333,273.140 88.615,272.824 88.958 M290.836 90.414 C 290.526 90.734,290.305 91.021,290.345 91.052 C 290.384 91.083,290.669 90.822,290.978 90.471 C 291.679 89.674,291.588 89.638,290.836 90.414 M271.406 90.542 L 270.917 91.083 271.458 90.594 C 271.963 90.138,272.077 90.000,271.948 90.000 C 271.919 90.000,271.675 90.244,271.406 90.542 M269.833 92.719 C 269.833 92.748,270.077 92.991,270.375 93.260 L 270.917 93.750 270.427 93.208 C 269.971 92.703,269.833 92.590,269.833 92.719 M271.750 94.500 C 272.201 94.958,272.608 95.333,272.654 95.333 C 272.700 95.333,272.368 94.958,271.917 94.500 C 271.465 94.042,271.058 93.667,271.013 93.667 C 270.967 93.667,271.299 94.042,271.750 94.500 M273.348 95.936 C 273.569 96.222,273.784 96.426,273.824 96.390 C 273.865 96.353,273.684 96.119,273.422 95.870 L 272.945 95.417 273.348 95.936 " stroke="none" fill="#94dde7" fill-rule="evenodd"></path><path id="path3" d="M349.208 24.221 C 350.175 25.136,350.178 25.214,349.292 26.160 L 348.583 26.917 349.375 26.174 C 350.374 25.236,350.366 25.046,349.292 24.179 L 348.417 23.472 349.208 24.221 M347.909 27.708 L 347.250 28.417 347.958 27.758 C 348.617 27.145,348.743 27.000,348.617 27.000 C 348.590 27.000,348.271 27.319,347.909 27.708 M326.759 29.323 L 326.102 30.083 326.834 29.381 C 327.237 28.994,327.533 28.652,327.492 28.620 C 327.450 28.588,327.121 28.904,326.759 29.323 M346.078 29.708 L 345.083 30.750 346.125 29.755 C 346.698 29.208,347.167 28.739,347.167 28.714 C 347.167 28.590,347.002 28.741,346.078 29.708 M325.333 30.917 C 324.928 31.329,324.635 31.667,324.681 31.667 C 324.726 31.667,325.095 31.329,325.500 30.917 C 325.905 30.504,326.199 30.167,326.153 30.167 C 326.107 30.167,325.738 30.504,325.333 30.917 M344.491 31.458 L 343.917 32.083 344.542 31.509 C 345.123 30.974,345.243 30.833,345.116 30.833 C 345.088 30.833,344.807 31.115,344.491 31.458 M323.909 32.542 L 323.250 33.250 323.958 32.591 C 324.348 32.229,324.667 31.910,324.667 31.883 C 324.667 31.757,324.522 31.883,323.909 32.542 M322.089 34.476 L 321.261 35.417 322.214 34.506 C 322.738 34.005,323.167 33.573,323.167 33.547 C 323.167 33.353,322.796 33.673,322.089 34.476 M319.643 37.208 C 318.785 38.148,318.216 38.813,318.377 38.686 C 318.760 38.386,321.395 35.500,321.286 35.500 C 321.241 35.500,320.501 36.269,319.643 37.208 M333.082 44.001 C 332.656 44.472,332.838 44.516,333.286 44.050 C 333.489 43.839,333.594 43.667,333.520 43.667 C 333.446 43.667,333.249 43.817,333.082 44.001 M307.976 49.979 C 307.943 50.071,306.916 51.257,305.693 52.615 C 304.470 53.972,303.945 54.593,304.526 53.994 C 306.388 52.076,308.217 49.995,308.125 49.902 C 308.075 49.853,308.008 49.888,307.976 49.979 M302.658 55.958 L 302.083 56.583 302.708 56.009 C 303.052 55.693,303.333 55.412,303.333 55.384 C 303.333 55.257,303.192 55.377,302.658 55.958 M321.660 56.625 C 319.781 58.598,319.267 59.167,319.361 59.167 C 319.415 59.167,320.188 58.379,321.079 57.417 C 321.971 56.454,322.671 55.667,322.636 55.667 C 322.601 55.667,322.162 56.098,321.660 56.625 M300.994 57.792 L 300.083 58.750 301.042 57.839 C 301.569 57.338,302.000 56.907,302.000 56.881 C 302.000 56.757,301.841 56.901,300.994 57.792 M299.324 59.625 C 298.127 60.894,297.598 61.500,297.687 61.500 C 297.732 61.500,298.314 60.900,298.979 60.167 C 300.294 58.718,300.531 58.345,299.324 59.625 M317.804 60.844 C 317.041 61.674,316.389 62.432,316.355 62.528 C 316.321 62.624,316.618 62.338,317.013 61.893 C 317.409 61.448,318.109 60.690,318.569 60.208 C 319.029 59.727,319.357 59.333,319.298 59.333 C 319.239 59.333,318.567 60.013,317.804 60.844 M314.388 64.597 C 313.579 65.476,312.890 66.268,312.857 66.359 C 312.824 66.450,313.159 66.125,313.600 65.637 C 314.041 65.149,314.778 64.356,315.237 63.875 C 315.696 63.394,316.024 63.000,315.966 63.000 C 315.908 63.000,315.198 63.719,314.388 64.597 M287.681 72.397 L 287.279 72.917 287.755 72.463 C 288.018 72.214,288.199 71.980,288.158 71.944 C 288.117 71.907,287.902 72.111,287.681 72.397 M286.328 73.958 L 285.417 74.917 286.375 74.006 C 286.902 73.505,287.333 73.073,287.333 73.047 C 287.333 72.924,287.174 73.068,286.328 73.958 M284.742 75.708 L 284.083 76.417 284.792 75.758 C 285.181 75.395,285.500 75.077,285.500 75.050 C 285.500 74.923,285.355 75.050,284.742 75.708 M283.818 76.769 C 283.695 76.916,283.442 77.099,283.256 77.175 C 283.017 77.272,282.994 77.315,283.179 77.323 C 283.324 77.329,283.618 77.146,283.833 76.917 C 284.049 76.688,284.183 76.500,284.133 76.500 C 284.082 76.500,283.940 76.621,283.818 76.769 M298.753 81.830 C 298.397 82.195,298.138 82.519,298.177 82.549 C 298.217 82.580,298.541 82.281,298.897 81.886 C 299.709 80.983,299.616 80.947,298.753 81.830 M297.087 83.663 C 296.638 84.119,296.303 84.516,296.343 84.545 C 296.384 84.574,296.784 84.201,297.233 83.716 C 298.266 82.600,298.169 82.565,297.087 83.663 M276.510 84.737 L 275.938 85.417 276.585 84.797 C 276.942 84.457,277.200 84.151,277.158 84.118 C 277.117 84.085,276.826 84.363,276.510 84.737 M295.242 85.708 L 294.583 86.417 295.292 85.758 C 295.681 85.395,296.000 85.077,296.000 85.050 C 296.000 84.923,295.855 85.050,295.242 85.708 M274.910 86.542 L 274.083 87.417 274.958 86.590 C 275.440 86.135,275.833 85.741,275.833 85.715 C 275.833 85.590,275.679 85.729,274.910 86.542 M293.743 87.375 C 291.850 89.373,291.435 89.833,291.526 89.833 C 291.578 89.833,292.313 89.083,293.158 88.167 C 294.004 87.250,294.668 86.500,294.634 86.500 C 294.600 86.500,294.199 86.894,293.743 87.375 M273.075 88.542 C 271.660 90.034,271.098 90.667,271.187 90.667 C 271.234 90.667,271.892 89.992,272.648 89.167 C 273.405 88.342,273.997 87.667,273.965 87.667 C 273.932 87.667,273.532 88.060,273.075 88.542 M270.292 91.591 C 269.528 92.441,269.518 92.637,270.208 93.260 L 270.750 93.750 270.292 93.241 C 269.694 92.577,269.712 92.388,270.448 91.635 C 270.785 91.289,271.029 90.981,270.989 90.951 C 270.949 90.920,270.635 91.208,270.292 91.591 M270.833 93.808 C 270.833 93.898,270.902 93.997,270.986 94.028 C 271.070 94.058,271.707 94.629,272.403 95.295 C 273.098 95.962,273.667 96.447,273.667 96.372 C 273.667 96.298,273.029 95.654,272.250 94.941 C 271.471 94.228,270.833 93.718,270.833 93.808 " stroke="none" fill="#5ecedb" fill-rule="evenodd"></path><path id="path4" d="M348.167 23.642 C 348.167 23.732,348.233 23.831,348.313 23.861 C 349.070 24.148,349.848 25.208,349.556 25.554 L 349.250 25.917 349.625 25.599 C 349.831 25.425,349.999 25.237,349.998 25.183 C 349.994 25.009,348.167 23.472,348.167 23.642 M348.075 27.208 L 347.417 27.917 348.125 27.258 C 348.784 26.645,348.910 26.500,348.784 26.500 C 348.757 26.500,348.438 26.819,348.075 27.208 M346.742 28.708 L 346.083 29.417 346.792 28.758 C 347.450 28.145,347.577 28.000,347.450 28.000 C 347.423 28.000,347.105 28.319,346.742 28.708 M327.519 28.578 C 327.509 28.759,327.107 29.321,326.627 29.828 L 325.754 30.750 326.727 29.815 C 327.418 29.151,327.677 28.788,327.619 28.565 C 327.543 28.267,327.538 28.267,327.519 28.578 M344.838 30.727 L 343.927 31.750 344.963 30.755 C 345.534 30.208,346.000 29.739,346.000 29.714 C 346.000 29.519,345.618 29.852,344.838 30.727 M325.000 31.583 C 324.595 31.996,324.301 32.333,324.347 32.333 C 324.393 32.333,324.762 31.996,325.167 31.583 C 325.572 31.171,325.865 30.833,325.819 30.833 C 325.774 30.833,325.405 31.171,325.000 31.583 M323.167 33.583 C 322.762 33.996,322.468 34.333,322.514 34.333 C 322.560 34.333,322.928 33.996,323.333 33.583 C 323.738 33.171,324.032 32.833,323.986 32.833 C 323.940 32.833,323.572 33.171,323.167 33.583 M321.575 35.375 L 320.917 36.083 321.625 35.425 C 322.015 35.062,322.333 34.743,322.333 34.716 C 322.333 34.590,322.188 34.716,321.575 35.375 M320.077 37.042 L 319.250 37.917 320.125 37.090 C 320.606 36.635,321.000 36.241,321.000 36.215 C 321.000 36.090,320.846 36.229,320.077 37.042 M307.158 51.292 L 306.583 51.917 307.208 51.342 C 307.552 51.026,307.833 50.745,307.833 50.717 C 307.833 50.590,307.692 50.710,307.158 51.292 M305.411 53.208 L 304.417 54.250 305.458 53.255 C 306.426 52.331,306.576 52.167,306.453 52.167 C 306.427 52.167,305.959 52.635,305.411 53.208 M303.406 55.375 L 302.917 55.917 303.458 55.427 C 303.963 54.971,304.077 54.833,303.948 54.833 C 303.919 54.833,303.675 55.077,303.406 55.375 M322.000 55.917 C 321.595 56.329,321.301 56.667,321.347 56.667 C 321.393 56.667,321.762 56.329,322.167 55.917 C 322.572 55.504,322.865 55.167,322.819 55.167 C 322.774 55.167,322.405 55.504,322.000 55.917 M302.000 56.917 C 301.595 57.329,301.301 57.667,301.347 57.667 C 301.393 57.667,301.762 57.329,302.167 56.917 C 302.572 56.504,302.865 56.167,302.819 56.167 C 302.774 56.167,302.405 56.504,302.000 56.917 M320.410 57.708 C 318.517 59.707,318.102 60.167,318.192 60.167 C 318.244 60.167,318.979 59.417,319.825 58.500 C 320.671 57.583,321.335 56.833,321.301 56.833 C 321.267 56.833,320.866 57.227,320.410 57.708 M300.491 58.625 L 299.917 59.250 300.542 58.676 C 300.885 58.360,301.167 58.078,301.167 58.051 C 301.167 57.923,301.026 58.043,300.491 58.625 M298.828 60.458 L 297.917 61.417 298.875 60.506 C 299.765 59.659,299.910 59.500,299.786 59.500 C 299.760 59.500,299.329 59.931,298.828 60.458 M317.242 61.208 L 316.583 61.917 317.292 61.258 C 317.681 60.895,318.000 60.577,318.000 60.550 C 318.000 60.423,317.855 60.550,317.242 61.208 M315.909 62.708 L 315.250 63.417 315.958 62.758 C 316.348 62.395,316.667 62.077,316.667 62.050 C 316.667 61.923,316.522 62.050,315.909 62.708 M313.828 64.958 L 312.917 65.917 313.875 65.006 C 314.765 64.159,314.910 64.000,314.786 64.000 C 314.760 64.000,314.329 64.431,313.828 64.958 M288.212 71.922 C 288.283 72.000,287.988 72.423,287.556 72.861 C 287.124 73.300,286.803 73.683,286.843 73.712 C 286.884 73.741,287.277 73.375,287.718 72.898 C 288.303 72.266,288.461 71.998,288.302 71.906 C 288.182 71.837,288.141 71.844,288.212 71.922 M285.742 74.875 L 285.083 75.583 285.792 74.925 C 286.181 74.562,286.500 74.243,286.500 74.216 C 286.500 74.090,286.355 74.216,285.742 74.875 M284.409 76.375 L 283.750 77.083 284.458 76.425 C 284.848 76.062,285.167 75.743,285.167 75.716 C 285.167 75.590,285.022 75.716,284.409 76.375 M298.151 82.208 C 297.566 82.873,297.220 83.312,297.381 83.184 C 297.732 82.907,299.399 81.000,299.291 81.000 C 299.249 81.000,298.737 81.544,298.151 82.208 M296.000 84.583 C 295.595 84.996,295.301 85.333,295.347 85.333 C 295.393 85.333,295.762 84.996,296.167 84.583 C 296.572 84.171,296.865 83.833,296.819 83.833 C 296.774 83.833,296.405 84.171,296.000 84.583 M275.069 86.625 C 272.739 89.176,271.980 90.058,273.224 88.767 C 274.732 87.201,276.721 85.000,276.627 85.000 C 276.586 85.000,275.885 85.731,275.069 86.625 M294.573 86.208 L 294.083 86.750 294.625 86.260 C 295.130 85.804,295.243 85.667,295.115 85.667 C 295.086 85.667,294.842 85.910,294.573 86.208 M292.576 88.375 C 290.672 90.385,290.269 90.833,290.364 90.833 C 290.418 90.833,291.155 90.083,292.000 89.167 C 292.845 88.250,293.507 87.500,293.471 87.500 C 293.435 87.500,293.032 87.894,292.576 88.375 M271.075 91.042 L 270.417 91.750 271.125 91.091 C 271.784 90.478,271.910 90.333,271.784 90.333 C 271.757 90.333,271.438 90.652,271.075 91.042 M270.070 92.181 C 269.758 92.526,269.762 92.535,270.503 93.212 C 270.914 93.588,271.869 94.470,272.625 95.172 C 273.381 95.874,274.000 96.395,274.000 96.331 C 274.000 96.266,273.100 95.398,272.000 94.403 C 269.775 92.390,269.900 92.554,270.276 92.138 C 270.428 91.970,270.514 91.833,270.468 91.833 C 270.422 91.833,270.243 91.990,270.070 92.181 " stroke="none" fill="#c7eef1" fill-rule="evenodd"></path></g></svg>